<?xml version="1.0" encoding="UTF-8" standalone="no"?>
<!-- Title: %3 Pages: 1 -->
<svg width="409pt" height="98pt"
 viewBox="0.00 0.00 408.58 98.00" xmlns="http://www.w3.org/2000/svg" xmlns:xlink="http://www.w3.org/1999/xlink">
<g id="graph0" class="graph" transform="scale(1 1) rotate(0) translate(4 94)">
<title>%3</title>
<polygon fill="white" stroke="none" points="-4,4 -4,-94 404.584,-94 404.584,4 -4,4"/>
<!-- 0 -->
<g id="node1" class="node"><title>0</title>
<ellipse fill="none" stroke="black" cx="41.5963" cy="-45" rx="41.6928" ry="18"/>
<text text-anchor="middle" x="41.5963" y="-41.3" font-family="Times,serif" font-size="14.00">petgraph</text>
</g>
<!-- 1 -->
<g id="node2" class="node"><title>1</title>
<ellipse fill="none" stroke="black" cx="169.888" cy="-72" rx="48.1917" ry="18"/>
<text text-anchor="middle" x="169.888" y="-68.3" font-family="Times,serif" font-size="14.00">fixedbitset</text>
</g>
<!-- 0&#45;&gt;1 -->
<g id="edge1" class="edge"><title>0&#45;&gt;1</title>
<path fill="none" stroke="black" d="M79.1251,-52.8095C91.0815,-55.3657 104.596,-58.255 117.442,-61.0012"/>
<polygon fill="black" stroke="black" points="117.047,-64.4958 127.557,-63.1639 118.51,-57.6505 117.047,-64.4958"/>
</g>
<!-- 2 -->
<g id="node3" class="node"><title>2</title>
<ellipse fill="none" stroke="black" cx="169.888" cy="-18" rx="50.8918" ry="18"/>
<text text-anchor="middle" x="169.888" y="-14.3" font-family="Times,serif" font-size="14.00">quickcheck</text>
</g>
<!-- 0&#45;&gt;2 -->
<g id="edge2" class="edge"><title>0&#45;&gt;2</title>
<path fill="none" stroke="black" d="M79.1251,-37.1905C90.6216,-34.7326 103.559,-31.9668 115.957,-29.3163"/>
<polygon fill="black" stroke="black" points="116.699,-32.7368 125.746,-27.2234 115.235,-25.8915 116.699,-32.7368"/>
</g>
<!-- 3 -->
<g id="node4" class="node"><title>3</title>
<ellipse fill="none" stroke="black" cx="283.584" cy="-41" rx="27" ry="18"/>
<text text-anchor="middle" x="283.584" y="-37.3" font-family="Times,serif" font-size="14.00">rand</text>
</g>
<!-- 2&#45;&gt;3 -->
<g id="edge3" class="edge"><title>2&#45;&gt;3</title>
<path fill="none" stroke="black" d="M214.073,-26.8924C225.238,-29.1915 237.116,-31.6373 247.791,-33.8356"/>
<polygon fill="black" stroke="black" points="247.095,-37.2656 257.595,-35.8545 248.507,-30.4094 247.095,-37.2656"/>
</g>
<!-- 4 -->
<g id="node5" class="node"><title>4</title>
<ellipse fill="none" stroke="black" cx="373.584" cy="-18" rx="27" ry="18"/>
<text text-anchor="middle" x="373.584" y="-14.3" font-family="Times,serif" font-size="14.00">libc</text>
</g>
<!-- 2&#45;&gt;4 -->
<g id="edge5" class="edge"><title>2&#45;&gt;4</title>
<path fill="none" stroke="black" d="M220.025,-15.1334C246.799,-13.9392 280.514,-13.031 310.584,-14 319.014,-14.2717 328.08,-14.7506 336.606,-15.2849"/>
<polygon fill="black" stroke="black" points="336.449,-18.7821 346.659,-15.9538 336.914,-11.7975 336.449,-18.7821"/>
</g>
<!-- 3&#45;&gt;4 -->
<g id="edge4" class="edge"><title>3&#45;&gt;4</title>
<path fill="none" stroke="black" d="M309.097,-34.5932C318.155,-32.2256 328.595,-29.497 338.359,-26.9452"/>
<polygon fill="black" stroke="black" points="339.412,-30.2874 348.202,-24.3724 337.642,-23.5149 339.412,-30.2874"/>
</g>
</g>
</svg>
